<mxfile host="app.diagrams.net" modified="2021-03-16T12:48:09.501Z" agent="5.0 (Windows NT 10.0; Win64; x64) AppleWebKit/537.36 (KHTML, like Gecko) Chrome/88.0.4324.190 Safari/537.36" etag="gB2hN1EMFtX3mT1qNbIp" version="14.4.8" type="github" pages="2">
  <diagram id="c1AuLAwbMeSonQJ_YPXn" name="第 2 页">
    <mxGraphModel dx="1422" dy="794" grid="1" gridSize="10" guides="1" tooltips="1" connect="1" arrows="1" fold="1" page="1" pageScale="1" pageWidth="583" pageHeight="827" math="0" shadow="0">
      <root>
        <mxCell id="Cn_z-d5cZoHQZC6IPEJ7-0" />
        <mxCell id="Cn_z-d5cZoHQZC6IPEJ7-1" parent="Cn_z-d5cZoHQZC6IPEJ7-0" />
        <mxCell id="Cn_z-d5cZoHQZC6IPEJ7-2" value="小程序" style="swimlane;" parent="Cn_z-d5cZoHQZC6IPEJ7-1" vertex="1">
          <mxGeometry x="140" y="80" width="290" height="760" as="geometry">
            <mxRectangle x="40" y="100" width="70" height="23" as="alternateBounds" />
          </mxGeometry>
        </mxCell>
        <mxCell id="Cn_z-d5cZoHQZC6IPEJ7-4" value="&lt;br&gt;&lt;br&gt;代理商" style="shape=actor;whiteSpace=wrap;html=1;" parent="Cn_z-d5cZoHQZC6IPEJ7-2" vertex="1">
          <mxGeometry x="10" y="190" width="40" height="50" as="geometry" />
        </mxCell>
        <mxCell id="Cn_z-d5cZoHQZC6IPEJ7-6" value="申请提现" style="shape=process;whiteSpace=wrap;html=1;backgroundOutline=1;" parent="Cn_z-d5cZoHQZC6IPEJ7-2" vertex="1">
          <mxGeometry x="90" y="70" width="120" height="60" as="geometry" />
        </mxCell>
        <mxCell id="X7omMuUb_odI4xtAwAQJ-1" value="状态消息" style="rounded=0;whiteSpace=wrap;html=1;dashed=1;" parent="Cn_z-d5cZoHQZC6IPEJ7-2" vertex="1">
          <mxGeometry x="90" y="195" width="120" height="40" as="geometry" />
        </mxCell>
        <mxCell id="X7omMuUb_odI4xtAwAQJ-2" value="提现记录&lt;br&gt;（待审核）" style="rounded=0;whiteSpace=wrap;html=1;" parent="Cn_z-d5cZoHQZC6IPEJ7-2" vertex="1">
          <mxGeometry x="90" y="270" width="120" height="40" as="geometry" />
        </mxCell>
        <mxCell id="X7omMuUb_odI4xtAwAQJ-3" value="提现记录&lt;br&gt;（拒绝）" style="rounded=0;whiteSpace=wrap;html=1;" parent="Cn_z-d5cZoHQZC6IPEJ7-2" vertex="1">
          <mxGeometry x="90" y="350" width="120" height="40" as="geometry" />
        </mxCell>
        <mxCell id="X7omMuUb_odI4xtAwAQJ-4" value="提现记录&lt;br&gt;（通过/退款失败）" style="rounded=0;whiteSpace=wrap;html=1;" parent="Cn_z-d5cZoHQZC6IPEJ7-2" vertex="1">
          <mxGeometry x="90" y="440" width="120" height="40" as="geometry" />
        </mxCell>
        <mxCell id="yOeyIR5VE72a3LLRmRfE-23" style="edgeStyle=orthogonalEdgeStyle;rounded=0;orthogonalLoop=1;jettySize=auto;html=1;entryX=0;entryY=0.5;entryDx=0;entryDy=0;" parent="Cn_z-d5cZoHQZC6IPEJ7-2" source="Cn_z-d5cZoHQZC6IPEJ7-4" target="Cn_z-d5cZoHQZC6IPEJ7-6" edge="1">
          <mxGeometry relative="1" as="geometry">
            <mxPoint x="20" y="100" as="targetPoint" />
            <Array as="points">
              <mxPoint x="20" y="100" />
            </Array>
          </mxGeometry>
        </mxCell>
        <mxCell id="yOeyIR5VE72a3LLRmRfE-30" value="" style="endArrow=classic;html=1;entryX=0.9;entryY=0.5;entryDx=0;entryDy=0;entryPerimeter=0;exitX=0;exitY=0.5;exitDx=0;exitDy=0;" parent="Cn_z-d5cZoHQZC6IPEJ7-2" source="X7omMuUb_odI4xtAwAQJ-1" target="Cn_z-d5cZoHQZC6IPEJ7-4" edge="1">
          <mxGeometry width="50" height="50" relative="1" as="geometry">
            <mxPoint x="90" y="240" as="sourcePoint" />
            <mxPoint x="60" y="240" as="targetPoint" />
            <Array as="points" />
          </mxGeometry>
        </mxCell>
        <mxCell id="Cn_z-d5cZoHQZC6IPEJ7-8" value="api接口" style="swimlane;" parent="Cn_z-d5cZoHQZC6IPEJ7-1" vertex="1">
          <mxGeometry x="500" y="80" width="370" height="760" as="geometry" />
        </mxCell>
        <mxCell id="Cn_z-d5cZoHQZC6IPEJ7-20" style="edgeStyle=orthogonalEdgeStyle;rounded=0;orthogonalLoop=1;jettySize=auto;html=1;entryX=0.5;entryY=0;entryDx=0;entryDy=0;" parent="Cn_z-d5cZoHQZC6IPEJ7-8" source="Cn_z-d5cZoHQZC6IPEJ7-13" target="Cn_z-d5cZoHQZC6IPEJ7-14" edge="1">
          <mxGeometry relative="1" as="geometry" />
        </mxCell>
        <mxCell id="Cn_z-d5cZoHQZC6IPEJ7-13" value="储备金余额充足" style="rounded=0;whiteSpace=wrap;html=1;" parent="Cn_z-d5cZoHQZC6IPEJ7-8" vertex="1">
          <mxGeometry x="140" y="40" width="120" height="40" as="geometry" />
        </mxCell>
        <mxCell id="Cn_z-d5cZoHQZC6IPEJ7-21" style="edgeStyle=orthogonalEdgeStyle;rounded=0;orthogonalLoop=1;jettySize=auto;html=1;entryX=0.5;entryY=0;entryDx=0;entryDy=0;" parent="Cn_z-d5cZoHQZC6IPEJ7-8" source="Cn_z-d5cZoHQZC6IPEJ7-14" target="Cn_z-d5cZoHQZC6IPEJ7-15" edge="1">
          <mxGeometry relative="1" as="geometry" />
        </mxCell>
        <mxCell id="Cn_z-d5cZoHQZC6IPEJ7-14" value="有可退款的充值记录" style="rounded=0;whiteSpace=wrap;html=1;" parent="Cn_z-d5cZoHQZC6IPEJ7-8" vertex="1">
          <mxGeometry x="140" y="110" width="120" height="40" as="geometry" />
        </mxCell>
        <mxCell id="Cn_z-d5cZoHQZC6IPEJ7-22" style="edgeStyle=orthogonalEdgeStyle;rounded=0;orthogonalLoop=1;jettySize=auto;html=1;entryX=0.5;entryY=0;entryDx=0;entryDy=0;" parent="Cn_z-d5cZoHQZC6IPEJ7-8" source="Cn_z-d5cZoHQZC6IPEJ7-15" target="Cn_z-d5cZoHQZC6IPEJ7-16" edge="1">
          <mxGeometry relative="1" as="geometry" />
        </mxCell>
        <mxCell id="Cn_z-d5cZoHQZC6IPEJ7-15" value="更新充值记录的&lt;br&gt;已退款金额" style="rounded=0;whiteSpace=wrap;html=1;" parent="Cn_z-d5cZoHQZC6IPEJ7-8" vertex="1">
          <mxGeometry x="140" y="180" width="120" height="50" as="geometry" />
        </mxCell>
        <mxCell id="Cn_z-d5cZoHQZC6IPEJ7-23" style="edgeStyle=orthogonalEdgeStyle;rounded=0;orthogonalLoop=1;jettySize=auto;html=1;entryX=0.5;entryY=0;entryDx=0;entryDy=0;" parent="Cn_z-d5cZoHQZC6IPEJ7-8" source="Cn_z-d5cZoHQZC6IPEJ7-16" target="Cn_z-d5cZoHQZC6IPEJ7-17" edge="1">
          <mxGeometry relative="1" as="geometry" />
        </mxCell>
        <mxCell id="Cn_z-d5cZoHQZC6IPEJ7-16" value="新增提现记录" style="rounded=0;whiteSpace=wrap;html=1;" parent="Cn_z-d5cZoHQZC6IPEJ7-8" vertex="1">
          <mxGeometry x="140" y="260" width="120" height="40" as="geometry" />
        </mxCell>
        <mxCell id="Cn_z-d5cZoHQZC6IPEJ7-24" style="edgeStyle=orthogonalEdgeStyle;rounded=0;orthogonalLoop=1;jettySize=auto;html=1;entryX=0.5;entryY=0;entryDx=0;entryDy=0;" parent="Cn_z-d5cZoHQZC6IPEJ7-8" source="Cn_z-d5cZoHQZC6IPEJ7-17" target="Cn_z-d5cZoHQZC6IPEJ7-18" edge="1">
          <mxGeometry relative="1" as="geometry" />
        </mxCell>
        <mxCell id="Cn_z-d5cZoHQZC6IPEJ7-17" value="添加汇付退款记录" style="rounded=0;whiteSpace=wrap;html=1;" parent="Cn_z-d5cZoHQZC6IPEJ7-8" vertex="1">
          <mxGeometry x="140" y="330" width="120" height="40" as="geometry" />
        </mxCell>
        <mxCell id="Cn_z-d5cZoHQZC6IPEJ7-18" value="添加储备金明细记录" style="rounded=0;whiteSpace=wrap;html=1;" parent="Cn_z-d5cZoHQZC6IPEJ7-8" vertex="1">
          <mxGeometry x="140" y="400" width="120" height="40" as="geometry" />
        </mxCell>
        <mxCell id="Cn_z-d5cZoHQZC6IPEJ7-19" value="更新代理商&lt;br&gt;储备金余额&lt;br&gt;和 累计消耗储备金" style="rounded=0;whiteSpace=wrap;html=1;" parent="Cn_z-d5cZoHQZC6IPEJ7-8" vertex="1">
          <mxGeometry x="140" y="473" width="120" height="50" as="geometry" />
        </mxCell>
        <mxCell id="8oQ-91jc9foF94IGNzBg-0" value="" style="strokeWidth=2;html=1;shape=mxgraph.flowchart.annotation_1;align=left;pointerEvents=1;" parent="Cn_z-d5cZoHQZC6IPEJ7-8" vertex="1">
          <mxGeometry x="122" y="70" width="20" height="440" as="geometry" />
        </mxCell>
        <mxCell id="X7omMuUb_odI4xtAwAQJ-0" value="条件成立" style="strokeWidth=2;html=1;shape=mxgraph.flowchart.decision;whiteSpace=wrap;" parent="Cn_z-d5cZoHQZC6IPEJ7-8" vertex="1">
          <mxGeometry x="30" y="170" width="70" height="100" as="geometry" />
        </mxCell>
        <mxCell id="NsUDPSb2mLZtXg8WYORT-0" value="" style="whiteSpace=wrap;fillColor=#009900;strokeColor=#009900;" parent="Cn_z-d5cZoHQZC6IPEJ7-8" vertex="1">
          <mxGeometry x="31" y="286" width="60.5" height="7" as="geometry" />
        </mxCell>
        <mxCell id="NsUDPSb2mLZtXg8WYORT-6" value="是" style="text;html=1;align=center;verticalAlign=middle;resizable=0;points=[];autosize=1;" parent="Cn_z-d5cZoHQZC6IPEJ7-8" vertex="1">
          <mxGeometry x="50" y="268" width="30" height="20" as="geometry" />
        </mxCell>
        <mxCell id="NsUDPSb2mLZtXg8WYORT-192" value="" style="endArrow=classic;html=1;strokeWidth=1;entryX=1;entryY=0.5;entryDx=0;entryDy=0;entryPerimeter=0;" parent="Cn_z-d5cZoHQZC6IPEJ7-8" target="X7omMuUb_odI4xtAwAQJ-0" edge="1">
          <mxGeometry width="50" height="50" relative="1" as="geometry">
            <mxPoint x="120" y="220" as="sourcePoint" />
            <mxPoint x="170" y="170" as="targetPoint" />
          </mxGeometry>
        </mxCell>
        <mxCell id="cPukek1dgGj2Ov7jdAaH-1" value="RabbitMQ" style="swimlane;fontStyle=0;childLayout=stackLayout;horizontal=1;startSize=26;fillColor=none;horizontalStack=0;resizeParent=1;resizeParentMax=0;resizeLast=0;collapsible=1;marginBottom=0;comic=0;strokeColor=#666666;strokeWidth=1;" parent="Cn_z-d5cZoHQZC6IPEJ7-8" vertex="1">
          <mxGeometry x="200" y="560" width="140" height="104" as="geometry" />
        </mxCell>
        <mxCell id="cPukek1dgGj2Ov7jdAaH-2" value="1、创建退款参数" style="text;strokeColor=none;fillColor=none;align=left;verticalAlign=top;spacingLeft=4;spacingRight=4;overflow=hidden;rotatable=0;points=[[0,0.5],[1,0.5]];portConstraint=eastwest;" parent="cPukek1dgGj2Ov7jdAaH-1" vertex="1">
          <mxGeometry y="26" width="140" height="26" as="geometry" />
        </mxCell>
        <mxCell id="cPukek1dgGj2Ov7jdAaH-3" value="2、发起退款请求&#xa;" style="text;strokeColor=none;fillColor=none;align=left;verticalAlign=top;spacingLeft=4;spacingRight=4;overflow=hidden;rotatable=0;points=[[0,0.5],[1,0.5]];portConstraint=eastwest;perimeterSpacing=1;" parent="cPukek1dgGj2Ov7jdAaH-1" vertex="1">
          <mxGeometry y="52" width="140" height="26" as="geometry" />
        </mxCell>
        <mxCell id="cPukek1dgGj2Ov7jdAaH-4" value="3、更新退款状态" style="text;strokeColor=none;fillColor=none;align=left;verticalAlign=top;spacingLeft=4;spacingRight=4;overflow=hidden;rotatable=0;points=[[0,0.5],[1,0.5]];portConstraint=eastwest;" parent="cPukek1dgGj2Ov7jdAaH-1" vertex="1">
          <mxGeometry y="78" width="140" height="26" as="geometry" />
        </mxCell>
        <mxCell id="cPukek1dgGj2Ov7jdAaH-7" value="退款成功/失败回调" style="swimlane;fontStyle=0;childLayout=stackLayout;horizontal=1;startSize=26;fillColor=none;horizontalStack=0;resizeParent=1;resizeParentMax=0;resizeLast=0;collapsible=1;marginBottom=0;comic=0;strokeColor=#666666;strokeWidth=1;" parent="Cn_z-d5cZoHQZC6IPEJ7-8" vertex="1">
          <mxGeometry x="20" y="560" width="150" height="100" as="geometry" />
        </mxCell>
        <mxCell id="cPukek1dgGj2Ov7jdAaH-8" value="1、修改提现状态" style="text;strokeColor=none;fillColor=none;align=left;verticalAlign=top;spacingLeft=4;spacingRight=4;overflow=hidden;rotatable=0;points=[[0,0.5],[1,0.5]];portConstraint=eastwest;" parent="cPukek1dgGj2Ov7jdAaH-7" vertex="1">
          <mxGeometry y="26" width="150" height="26" as="geometry" />
        </mxCell>
        <mxCell id="cPukek1dgGj2Ov7jdAaH-9" value="2、更新退款状态" style="text;strokeColor=none;fillColor=none;align=left;verticalAlign=top;spacingLeft=4;spacingRight=4;overflow=hidden;rotatable=0;points=[[0,0.5],[1,0.5]];portConstraint=eastwest;perimeterSpacing=1;" parent="cPukek1dgGj2Ov7jdAaH-7" vertex="1">
          <mxGeometry y="52" width="150" height="48" as="geometry" />
        </mxCell>
        <mxCell id="yOeyIR5VE72a3LLRmRfE-19" style="edgeStyle=orthogonalEdgeStyle;rounded=0;orthogonalLoop=1;jettySize=auto;html=1;entryX=0;entryY=0.5;entryDx=0;entryDy=0;" parent="Cn_z-d5cZoHQZC6IPEJ7-1" source="Cn_z-d5cZoHQZC6IPEJ7-6" target="Cn_z-d5cZoHQZC6IPEJ7-13" edge="1">
          <mxGeometry relative="1" as="geometry" />
        </mxCell>
        <mxCell id="NsUDPSb2mLZtXg8WYORT-85" value="后台系统" style="swimlane;" parent="Cn_z-d5cZoHQZC6IPEJ7-1" vertex="1">
          <mxGeometry x="900" y="90" width="550" height="750" as="geometry" />
        </mxCell>
        <mxCell id="NsUDPSb2mLZtXg8WYORT-149" style="edgeStyle=orthogonalEdgeStyle;rounded=0;orthogonalLoop=1;jettySize=auto;html=1;entryX=0.5;entryY=0;entryDx=0;entryDy=0;strokeWidth=1;" parent="NsUDPSb2mLZtXg8WYORT-85" source="NsUDPSb2mLZtXg8WYORT-87" target="NsUDPSb2mLZtXg8WYORT-89" edge="1">
          <mxGeometry relative="1" as="geometry" />
        </mxCell>
        <mxCell id="NsUDPSb2mLZtXg8WYORT-87" value="提现记录&lt;br&gt;（待审核）" style="rounded=0;whiteSpace=wrap;html=1;" parent="NsUDPSb2mLZtXg8WYORT-85" vertex="1">
          <mxGeometry x="231.43" y="110" width="80" height="40" as="geometry" />
        </mxCell>
        <mxCell id="NsUDPSb2mLZtXg8WYORT-150" style="edgeStyle=orthogonalEdgeStyle;rounded=0;orthogonalLoop=1;jettySize=auto;html=1;entryX=0.5;entryY=0;entryDx=0;entryDy=0;strokeWidth=1;" parent="NsUDPSb2mLZtXg8WYORT-85" source="NsUDPSb2mLZtXg8WYORT-88" target="NsUDPSb2mLZtXg8WYORT-87" edge="1">
          <mxGeometry relative="1" as="geometry" />
        </mxCell>
        <mxCell id="NsUDPSb2mLZtXg8WYORT-88" value="&lt;br&gt;&lt;br&gt;运营&lt;br&gt;人员" style="shape=actor;whiteSpace=wrap;html=1;" parent="NsUDPSb2mLZtXg8WYORT-85" vertex="1">
          <mxGeometry x="252.87" y="27" width="37.13" height="63" as="geometry" />
        </mxCell>
        <mxCell id="NsUDPSb2mLZtXg8WYORT-159" style="edgeStyle=orthogonalEdgeStyle;rounded=0;orthogonalLoop=1;jettySize=auto;html=1;entryX=0.5;entryY=0;entryDx=0;entryDy=0;strokeWidth=1;" parent="NsUDPSb2mLZtXg8WYORT-85" source="NsUDPSb2mLZtXg8WYORT-89" target="NsUDPSb2mLZtXg8WYORT-102" edge="1">
          <mxGeometry relative="1" as="geometry" />
        </mxCell>
        <mxCell id="NsUDPSb2mLZtXg8WYORT-161" value="通过" style="edgeLabel;html=1;align=center;verticalAlign=middle;resizable=0;points=[];" parent="NsUDPSb2mLZtXg8WYORT-159" vertex="1" connectable="0">
          <mxGeometry x="0.231" y="1" relative="1" as="geometry">
            <mxPoint as="offset" />
          </mxGeometry>
        </mxCell>
        <mxCell id="NsUDPSb2mLZtXg8WYORT-160" style="edgeStyle=orthogonalEdgeStyle;rounded=0;orthogonalLoop=1;jettySize=auto;html=1;entryX=0.5;entryY=0;entryDx=0;entryDy=0;strokeWidth=1;" parent="NsUDPSb2mLZtXg8WYORT-85" source="NsUDPSb2mLZtXg8WYORT-89" target="NsUDPSb2mLZtXg8WYORT-92" edge="1">
          <mxGeometry relative="1" as="geometry" />
        </mxCell>
        <mxCell id="NsUDPSb2mLZtXg8WYORT-162" value="拒绝" style="edgeLabel;html=1;align=center;verticalAlign=middle;resizable=0;points=[];" parent="NsUDPSb2mLZtXg8WYORT-160" vertex="1" connectable="0">
          <mxGeometry x="0.0869" y="1" relative="1" as="geometry">
            <mxPoint as="offset" />
          </mxGeometry>
        </mxCell>
        <mxCell id="NsUDPSb2mLZtXg8WYORT-89" value="审核" style="rhombus;whiteSpace=wrap;html=1;strokeColor=#000000;strokeWidth=2;fillColor=none;" parent="NsUDPSb2mLZtXg8WYORT-85" vertex="1">
          <mxGeometry x="231.43" y="180" width="80" height="80" as="geometry" />
        </mxCell>
        <mxCell id="NsUDPSb2mLZtXg8WYORT-156" style="edgeStyle=orthogonalEdgeStyle;rounded=0;orthogonalLoop=1;jettySize=auto;html=1;entryX=0.5;entryY=0;entryDx=0;entryDy=0;strokeWidth=1;" parent="NsUDPSb2mLZtXg8WYORT-85" source="NsUDPSb2mLZtXg8WYORT-92" target="NsUDPSb2mLZtXg8WYORT-96" edge="1">
          <mxGeometry relative="1" as="geometry" />
        </mxCell>
        <mxCell id="NsUDPSb2mLZtXg8WYORT-92" value="是否待审核状态" style="rounded=0;whiteSpace=wrap;html=1;" parent="NsUDPSb2mLZtXg8WYORT-85" vertex="1">
          <mxGeometry x="330" y="240" width="120" height="30" as="geometry" />
        </mxCell>
        <mxCell id="NsUDPSb2mLZtXg8WYORT-164" style="edgeStyle=orthogonalEdgeStyle;rounded=0;orthogonalLoop=1;jettySize=auto;html=1;entryX=1;entryY=0.75;entryDx=0;entryDy=0;strokeWidth=1;" parent="NsUDPSb2mLZtXg8WYORT-85" source="NsUDPSb2mLZtXg8WYORT-93" target="NsUDPSb2mLZtXg8WYORT-88" edge="1">
          <mxGeometry relative="1" as="geometry">
            <Array as="points">
              <mxPoint x="420" y="74" />
            </Array>
          </mxGeometry>
        </mxCell>
        <mxCell id="NsUDPSb2mLZtXg8WYORT-93" value="状态消息&lt;br&gt;（成功/失败）" style="rounded=0;whiteSpace=wrap;html=1;dashed=1;" parent="NsUDPSb2mLZtXg8WYORT-85" vertex="1">
          <mxGeometry x="370" y="110" width="80" height="40" as="geometry" />
        </mxCell>
        <mxCell id="NsUDPSb2mLZtXg8WYORT-165" style="edgeStyle=orthogonalEdgeStyle;rounded=0;orthogonalLoop=1;jettySize=auto;html=1;entryX=0.5;entryY=0;entryDx=0;entryDy=0;strokeWidth=1;" parent="NsUDPSb2mLZtXg8WYORT-85" source="NsUDPSb2mLZtXg8WYORT-96" target="NsUDPSb2mLZtXg8WYORT-97" edge="1">
          <mxGeometry relative="1" as="geometry" />
        </mxCell>
        <mxCell id="NsUDPSb2mLZtXg8WYORT-96" value="是否有对应&lt;br&gt;的退款记录" style="rounded=0;whiteSpace=wrap;html=1;" parent="NsUDPSb2mLZtXg8WYORT-85" vertex="1">
          <mxGeometry x="330" y="297" width="120" height="30" as="geometry" />
        </mxCell>
        <mxCell id="NsUDPSb2mLZtXg8WYORT-166" style="edgeStyle=orthogonalEdgeStyle;rounded=0;orthogonalLoop=1;jettySize=auto;html=1;entryX=0.5;entryY=0;entryDx=0;entryDy=0;strokeWidth=1;" parent="NsUDPSb2mLZtXg8WYORT-85" source="NsUDPSb2mLZtXg8WYORT-97" target="NsUDPSb2mLZtXg8WYORT-98" edge="1">
          <mxGeometry relative="1" as="geometry" />
        </mxCell>
        <mxCell id="NsUDPSb2mLZtXg8WYORT-97" value="退款记录和&lt;br&gt;返还记录是否一致" style="rounded=0;whiteSpace=wrap;html=1;" parent="NsUDPSb2mLZtXg8WYORT-85" vertex="1">
          <mxGeometry x="330" y="350" width="120" height="38" as="geometry" />
        </mxCell>
        <mxCell id="NsUDPSb2mLZtXg8WYORT-167" style="edgeStyle=orthogonalEdgeStyle;rounded=0;orthogonalLoop=1;jettySize=auto;html=1;entryX=0.5;entryY=0;entryDx=0;entryDy=0;strokeWidth=1;" parent="NsUDPSb2mLZtXg8WYORT-85" source="NsUDPSb2mLZtXg8WYORT-98" target="NsUDPSb2mLZtXg8WYORT-99" edge="1">
          <mxGeometry relative="1" as="geometry" />
        </mxCell>
        <mxCell id="NsUDPSb2mLZtXg8WYORT-98" value="退还 &lt;br&gt;储备金充值记录的&lt;br&gt;&amp;nbsp;退款金额" style="rounded=0;whiteSpace=wrap;html=1;" parent="NsUDPSb2mLZtXg8WYORT-85" vertex="1">
          <mxGeometry x="330" y="416" width="120" height="50" as="geometry" />
        </mxCell>
        <mxCell id="NsUDPSb2mLZtXg8WYORT-168" style="edgeStyle=orthogonalEdgeStyle;rounded=0;orthogonalLoop=1;jettySize=auto;html=1;entryX=0.5;entryY=0;entryDx=0;entryDy=0;strokeWidth=1;" parent="NsUDPSb2mLZtXg8WYORT-85" source="NsUDPSb2mLZtXg8WYORT-99" target="NsUDPSb2mLZtXg8WYORT-101" edge="1">
          <mxGeometry relative="1" as="geometry" />
        </mxCell>
        <mxCell id="NsUDPSb2mLZtXg8WYORT-99" value="删除 &lt;br&gt;商家储备金明细表 &lt;br&gt;中的提现记录" style="rounded=0;whiteSpace=wrap;html=1;" parent="NsUDPSb2mLZtXg8WYORT-85" vertex="1">
          <mxGeometry x="330" y="499" width="120" height="60" as="geometry" />
        </mxCell>
        <mxCell id="NsUDPSb2mLZtXg8WYORT-100" style="edgeStyle=orthogonalEdgeStyle;rounded=0;orthogonalLoop=1;jettySize=auto;html=1;exitX=0.5;exitY=1;exitDx=0;exitDy=0;" parent="NsUDPSb2mLZtXg8WYORT-85" source="NsUDPSb2mLZtXg8WYORT-99" target="NsUDPSb2mLZtXg8WYORT-99" edge="1">
          <mxGeometry relative="1" as="geometry" />
        </mxCell>
        <mxCell id="NsUDPSb2mLZtXg8WYORT-169" style="edgeStyle=orthogonalEdgeStyle;rounded=0;orthogonalLoop=1;jettySize=auto;html=1;entryX=0.5;entryY=0;entryDx=0;entryDy=0;strokeWidth=1;" parent="NsUDPSb2mLZtXg8WYORT-85" source="NsUDPSb2mLZtXg8WYORT-101" target="NsUDPSb2mLZtXg8WYORT-105" edge="1">
          <mxGeometry relative="1" as="geometry" />
        </mxCell>
        <mxCell id="NsUDPSb2mLZtXg8WYORT-101" value="恢复代理商&lt;br&gt;储备金余额&lt;br&gt;和 累计消耗储备金" style="rounded=0;whiteSpace=wrap;html=1;" parent="NsUDPSb2mLZtXg8WYORT-85" vertex="1">
          <mxGeometry x="330" y="579" width="120" height="60" as="geometry" />
        </mxCell>
        <mxCell id="NsUDPSb2mLZtXg8WYORT-155" style="edgeStyle=orthogonalEdgeStyle;rounded=0;orthogonalLoop=1;jettySize=auto;html=1;entryX=0.5;entryY=0;entryDx=0;entryDy=0;strokeWidth=1;" parent="NsUDPSb2mLZtXg8WYORT-85" source="NsUDPSb2mLZtXg8WYORT-102" target="NsUDPSb2mLZtXg8WYORT-103" edge="1">
          <mxGeometry relative="1" as="geometry" />
        </mxCell>
        <mxCell id="NsUDPSb2mLZtXg8WYORT-102" value="是否待审核状态" style="rounded=0;whiteSpace=wrap;html=1;" parent="NsUDPSb2mLZtXg8WYORT-85" vertex="1">
          <mxGeometry x="90" y="240" width="120" height="30" as="geometry" />
        </mxCell>
        <mxCell id="NsUDPSb2mLZtXg8WYORT-170" style="edgeStyle=orthogonalEdgeStyle;rounded=0;orthogonalLoop=1;jettySize=auto;html=1;entryX=0.5;entryY=0;entryDx=0;entryDy=0;strokeWidth=1;" parent="NsUDPSb2mLZtXg8WYORT-85" source="NsUDPSb2mLZtXg8WYORT-103" target="NsUDPSb2mLZtXg8WYORT-104" edge="1">
          <mxGeometry relative="1" as="geometry" />
        </mxCell>
        <mxCell id="NsUDPSb2mLZtXg8WYORT-103" value="是否有对应&lt;br&gt;的退款记录" style="rounded=0;whiteSpace=wrap;html=1;" parent="NsUDPSb2mLZtXg8WYORT-85" vertex="1">
          <mxGeometry x="90" y="296" width="120" height="30" as="geometry" />
        </mxCell>
        <mxCell id="NsUDPSb2mLZtXg8WYORT-104" value="修改提现状态&lt;br&gt;为 【已通过】" style="rounded=0;whiteSpace=wrap;html=1;" parent="NsUDPSb2mLZtXg8WYORT-85" vertex="1">
          <mxGeometry x="90" y="349.5" width="120" height="38.5" as="geometry" />
        </mxCell>
        <mxCell id="NsUDPSb2mLZtXg8WYORT-105" value="修改提现状态&lt;br&gt;为 【已拒绝】" style="rounded=0;whiteSpace=wrap;html=1;" parent="NsUDPSb2mLZtXg8WYORT-85" vertex="1">
          <mxGeometry x="330" y="660" width="120" height="35" as="geometry" />
        </mxCell>
        <mxCell id="NsUDPSb2mLZtXg8WYORT-109" value="发送消息队列&lt;br&gt;(通知退款)" style="rounded=0;whiteSpace=wrap;html=1;" parent="NsUDPSb2mLZtXg8WYORT-85" vertex="1">
          <mxGeometry x="90" y="411" width="119" height="46" as="geometry" />
        </mxCell>
        <mxCell id="NsUDPSb2mLZtXg8WYORT-125" value="状态消息&lt;br&gt;（成功/失败）" style="rounded=0;whiteSpace=wrap;html=1;dashed=1;" parent="NsUDPSb2mLZtXg8WYORT-85" vertex="1">
          <mxGeometry x="90" y="110" width="80" height="40" as="geometry" />
        </mxCell>
        <mxCell id="NsUDPSb2mLZtXg8WYORT-130" value="" style="strokeWidth=2;html=1;shape=mxgraph.flowchart.annotation_1;align=left;pointerEvents=1;fillColor=none;" parent="NsUDPSb2mLZtXg8WYORT-85" vertex="1">
          <mxGeometry x="70" y="258" width="21" height="172" as="geometry" />
        </mxCell>
        <mxCell id="NsUDPSb2mLZtXg8WYORT-143" style="edgeStyle=orthogonalEdgeStyle;rounded=0;orthogonalLoop=1;jettySize=auto;html=1;exitX=0;exitY=0.5;exitDx=0;exitDy=0;exitPerimeter=0;entryX=1;entryY=0.75;entryDx=0;entryDy=0;strokeWidth=1;strokeColor=#FF6666;" parent="NsUDPSb2mLZtXg8WYORT-85" source="NsUDPSb2mLZtXg8WYORT-132" target="NsUDPSb2mLZtXg8WYORT-93" edge="1">
          <mxGeometry relative="1" as="geometry">
            <Array as="points">
              <mxPoint x="480" y="466" />
              <mxPoint x="480" y="140" />
            </Array>
          </mxGeometry>
        </mxCell>
        <mxCell id="NsUDPSb2mLZtXg8WYORT-146" value="操作失败" style="edgeLabel;html=1;align=center;verticalAlign=middle;resizable=0;points=[];" parent="NsUDPSb2mLZtXg8WYORT-143" vertex="1" connectable="0">
          <mxGeometry x="0.5215" y="2" relative="1" as="geometry">
            <mxPoint x="-1.5" as="offset" />
          </mxGeometry>
        </mxCell>
        <mxCell id="NsUDPSb2mLZtXg8WYORT-132" value="" style="strokeWidth=2;html=1;shape=mxgraph.flowchart.annotation_1;align=left;pointerEvents=1;fillColor=none;direction=west;" parent="NsUDPSb2mLZtXg8WYORT-85" vertex="1">
          <mxGeometry x="450" y="260" width="20" height="420" as="geometry" />
        </mxCell>
        <mxCell id="NsUDPSb2mLZtXg8WYORT-138" style="edgeStyle=orthogonalEdgeStyle;rounded=0;orthogonalLoop=1;jettySize=auto;html=1;exitX=0.25;exitY=1;exitDx=0;exitDy=0;strokeWidth=1;entryX=0;entryY=0.25;entryDx=0;entryDy=0;strokeColor=#009900;" parent="NsUDPSb2mLZtXg8WYORT-85" source="NsUDPSb2mLZtXg8WYORT-109" target="NsUDPSb2mLZtXg8WYORT-125" edge="1">
          <mxGeometry relative="1" as="geometry">
            <mxPoint x="50" y="120" as="targetPoint" />
            <Array as="points">
              <mxPoint x="150" y="457" />
              <mxPoint x="150" y="470" />
              <mxPoint x="30" y="470" />
              <mxPoint x="30" y="120" />
            </Array>
          </mxGeometry>
        </mxCell>
        <mxCell id="NsUDPSb2mLZtXg8WYORT-142" value="操作成功" style="edgeLabel;html=1;align=center;verticalAlign=middle;resizable=0;points=[];" parent="NsUDPSb2mLZtXg8WYORT-138" vertex="1" connectable="0">
          <mxGeometry x="-0.6608" relative="1" as="geometry">
            <mxPoint x="16.2" as="offset" />
          </mxGeometry>
        </mxCell>
        <mxCell id="NsUDPSb2mLZtXg8WYORT-140" style="edgeStyle=orthogonalEdgeStyle;rounded=0;orthogonalLoop=1;jettySize=auto;html=1;strokeWidth=1;entryX=0;entryY=0.75;entryDx=0;entryDy=0;strokeColor=#FF6666;" parent="NsUDPSb2mLZtXg8WYORT-85" source="NsUDPSb2mLZtXg8WYORT-130" target="NsUDPSb2mLZtXg8WYORT-125" edge="1">
          <mxGeometry relative="1" as="geometry">
            <mxPoint x="50" y="140" as="targetPoint" />
            <Array as="points">
              <mxPoint x="60" y="334" />
              <mxPoint x="60" y="140" />
            </Array>
          </mxGeometry>
        </mxCell>
        <mxCell id="NsUDPSb2mLZtXg8WYORT-141" value="操作失败" style="edgeLabel;html=1;align=center;verticalAlign=middle;resizable=0;points=[];" parent="NsUDPSb2mLZtXg8WYORT-140" vertex="1" connectable="0">
          <mxGeometry x="0.2308" y="-3" relative="1" as="geometry">
            <mxPoint as="offset" />
          </mxGeometry>
        </mxCell>
        <mxCell id="NsUDPSb2mLZtXg8WYORT-145" style="edgeStyle=orthogonalEdgeStyle;rounded=0;orthogonalLoop=1;jettySize=auto;html=1;strokeWidth=1;entryX=1;entryY=0.25;entryDx=0;entryDy=0;strokeColor=#009900;" parent="NsUDPSb2mLZtXg8WYORT-85" source="NsUDPSb2mLZtXg8WYORT-105" target="NsUDPSb2mLZtXg8WYORT-93" edge="1">
          <mxGeometry relative="1" as="geometry">
            <mxPoint x="530" y="530" as="targetPoint" />
            <Array as="points">
              <mxPoint x="390" y="710" />
              <mxPoint x="510" y="710" />
              <mxPoint x="510" y="120" />
            </Array>
          </mxGeometry>
        </mxCell>
        <mxCell id="NsUDPSb2mLZtXg8WYORT-147" value="操作成功" style="edgeLabel;html=1;align=center;verticalAlign=middle;resizable=0;points=[];" parent="NsUDPSb2mLZtXg8WYORT-145" vertex="1" connectable="0">
          <mxGeometry x="-0.8529" relative="1" as="geometry">
            <mxPoint as="offset" />
          </mxGeometry>
        </mxCell>
        <mxCell id="NsUDPSb2mLZtXg8WYORT-163" style="edgeStyle=orthogonalEdgeStyle;rounded=0;orthogonalLoop=1;jettySize=auto;html=1;strokeWidth=1;entryX=0;entryY=0.75;entryDx=0;entryDy=0;" parent="NsUDPSb2mLZtXg8WYORT-85" source="NsUDPSb2mLZtXg8WYORT-125" target="NsUDPSb2mLZtXg8WYORT-88" edge="1">
          <mxGeometry relative="1" as="geometry">
            <mxPoint x="140" y="50" as="targetPoint" />
            <Array as="points">
              <mxPoint x="130" y="74" />
            </Array>
          </mxGeometry>
        </mxCell>
        <mxCell id="NsUDPSb2mLZtXg8WYORT-188" value="" style="endArrow=classic;html=1;entryX=1;entryY=0.5;entryDx=0;entryDy=0;" parent="NsUDPSb2mLZtXg8WYORT-85" target="cPukek1dgGj2Ov7jdAaH-3" edge="1">
          <mxGeometry relative="1" as="geometry">
            <mxPoint x="170" y="457" as="sourcePoint" />
            <mxPoint x="170" y="727" as="targetPoint" />
            <Array as="points">
              <mxPoint x="170" y="615" />
            </Array>
          </mxGeometry>
        </mxCell>
        <mxCell id="NsUDPSb2mLZtXg8WYORT-189" value="" style="shape=message;html=1;outlineConnect=0;" parent="NsUDPSb2mLZtXg8WYORT-188" vertex="1">
          <mxGeometry width="20" height="14" relative="1" as="geometry">
            <mxPoint x="-10" y="-7" as="offset" />
          </mxGeometry>
        </mxCell>
        <mxCell id="cPukek1dgGj2Ov7jdAaH-5" value="消息队列" style="edgeLabel;html=1;align=center;verticalAlign=middle;resizable=0;points=[];" parent="NsUDPSb2mLZtXg8WYORT-188" vertex="1" connectable="0">
          <mxGeometry x="-0.4491" y="1" relative="1" as="geometry">
            <mxPoint as="offset" />
          </mxGeometry>
        </mxCell>
        <mxCell id="NsUDPSb2mLZtXg8WYORT-201" style="edgeStyle=orthogonalEdgeStyle;rounded=0;orthogonalLoop=1;jettySize=auto;html=1;strokeColor=#000000;strokeWidth=1;" parent="Cn_z-d5cZoHQZC6IPEJ7-1" source="NsUDPSb2mLZtXg8WYORT-96" edge="1">
          <mxGeometry relative="1" as="geometry">
            <mxPoint x="1370" y="402" as="targetPoint" />
          </mxGeometry>
        </mxCell>
        <mxCell id="NsUDPSb2mLZtXg8WYORT-202" style="edgeStyle=orthogonalEdgeStyle;rounded=0;orthogonalLoop=1;jettySize=auto;html=1;strokeColor=#000000;strokeWidth=1;" parent="Cn_z-d5cZoHQZC6IPEJ7-1" source="NsUDPSb2mLZtXg8WYORT-97" edge="1">
          <mxGeometry relative="1" as="geometry">
            <mxPoint x="1370" y="459" as="targetPoint" />
          </mxGeometry>
        </mxCell>
        <mxCell id="NsUDPSb2mLZtXg8WYORT-206" style="edgeStyle=orthogonalEdgeStyle;rounded=0;orthogonalLoop=1;jettySize=auto;html=1;strokeColor=#000000;strokeWidth=1;" parent="Cn_z-d5cZoHQZC6IPEJ7-1" source="NsUDPSb2mLZtXg8WYORT-98" edge="1">
          <mxGeometry relative="1" as="geometry">
            <mxPoint x="1370" y="531" as="targetPoint" />
          </mxGeometry>
        </mxCell>
        <mxCell id="NsUDPSb2mLZtXg8WYORT-207" style="edgeStyle=orthogonalEdgeStyle;rounded=0;orthogonalLoop=1;jettySize=auto;html=1;strokeColor=#000000;strokeWidth=1;" parent="Cn_z-d5cZoHQZC6IPEJ7-1" source="NsUDPSb2mLZtXg8WYORT-99" edge="1">
          <mxGeometry relative="1" as="geometry">
            <mxPoint x="1370" y="619" as="targetPoint" />
          </mxGeometry>
        </mxCell>
        <mxCell id="NsUDPSb2mLZtXg8WYORT-209" style="edgeStyle=orthogonalEdgeStyle;rounded=0;orthogonalLoop=1;jettySize=auto;html=1;strokeColor=#000000;strokeWidth=1;" parent="Cn_z-d5cZoHQZC6IPEJ7-1" source="NsUDPSb2mLZtXg8WYORT-101" edge="1">
          <mxGeometry relative="1" as="geometry">
            <mxPoint x="1370" y="699" as="targetPoint" />
          </mxGeometry>
        </mxCell>
        <mxCell id="cPukek1dgGj2Ov7jdAaH-11" style="edgeStyle=orthogonalEdgeStyle;rounded=0;orthogonalLoop=1;jettySize=auto;html=1;startSize=26;strokeColor=#000000;strokeWidth=1;" parent="Cn_z-d5cZoHQZC6IPEJ7-1" source="Cn_z-d5cZoHQZC6IPEJ7-18" edge="1">
          <mxGeometry relative="1" as="geometry">
            <mxPoint x="700" y="550" as="targetPoint" />
          </mxGeometry>
        </mxCell>
        <mxCell id="cPukek1dgGj2Ov7jdAaH-18" style="edgeStyle=orthogonalEdgeStyle;rounded=0;orthogonalLoop=1;jettySize=auto;html=1;startSize=26;strokeColor=#000000;strokeWidth=1;" parent="Cn_z-d5cZoHQZC6IPEJ7-1" edge="1">
          <mxGeometry relative="1" as="geometry">
            <mxPoint x="590" y="744" as="targetPoint" />
            <mxPoint x="690" y="944" as="sourcePoint" />
          </mxGeometry>
        </mxCell>
        <mxCell id="cPukek1dgGj2Ov7jdAaH-12" value="&lt;span style=&quot;font-weight: 700&quot;&gt;adaPay三方支付&lt;/span&gt;" style="shape=process;whiteSpace=wrap;html=1;backgroundOutline=1;comic=0;startSize=26;strokeColor=#666666;strokeWidth=1;fillColor=none;" parent="Cn_z-d5cZoHQZC6IPEJ7-1" vertex="1">
          <mxGeometry x="690" y="910" width="160" height="80" as="geometry" />
        </mxCell>
        <mxCell id="cPukek1dgGj2Ov7jdAaH-14" style="edgeStyle=orthogonalEdgeStyle;rounded=0;orthogonalLoop=1;jettySize=auto;html=1;entryX=0.5;entryY=0;entryDx=0;entryDy=0;startSize=26;strokeColor=#000000;strokeWidth=1;" parent="Cn_z-d5cZoHQZC6IPEJ7-1" source="cPukek1dgGj2Ov7jdAaH-1" target="cPukek1dgGj2Ov7jdAaH-12" edge="1">
          <mxGeometry relative="1" as="geometry" />
        </mxCell>
        <mxCell id="busUsJbX6CWpNkvnK6WH-0" style="edgeStyle=orthogonalEdgeStyle;rounded=0;orthogonalLoop=1;jettySize=auto;html=1;entryX=1;entryY=0.75;entryDx=0;entryDy=0;exitX=0.5;exitY=1;exitDx=0;exitDy=0;strokeColor=#009900;" parent="Cn_z-d5cZoHQZC6IPEJ7-1" source="NsUDPSb2mLZtXg8WYORT-0" target="X7omMuUb_odI4xtAwAQJ-2" edge="1">
          <mxGeometry relative="1" as="geometry">
            <mxPoint x="560" y="380" as="sourcePoint" />
            <Array as="points">
              <mxPoint x="561" y="380" />
            </Array>
          </mxGeometry>
        </mxCell>
        <mxCell id="busUsJbX6CWpNkvnK6WH-5" value="操作成功" style="edgeLabel;html=1;align=center;verticalAlign=middle;resizable=0;points=[];" parent="busUsJbX6CWpNkvnK6WH-0" vertex="1" connectable="0">
          <mxGeometry x="-0.1177" relative="1" as="geometry">
            <mxPoint as="offset" />
          </mxGeometry>
        </mxCell>
        <mxCell id="busUsJbX6CWpNkvnK6WH-3" style="edgeStyle=orthogonalEdgeStyle;rounded=0;orthogonalLoop=1;jettySize=auto;html=1;strokeColor=#FF6666;" parent="Cn_z-d5cZoHQZC6IPEJ7-1" source="X7omMuUb_odI4xtAwAQJ-0" edge="1">
          <mxGeometry relative="1" as="geometry">
            <mxPoint x="360" y="300" as="targetPoint" />
          </mxGeometry>
        </mxCell>
        <mxCell id="busUsJbX6CWpNkvnK6WH-4" value="否，操作失败" style="edgeLabel;html=1;align=center;verticalAlign=middle;resizable=0;points=[];" parent="busUsJbX6CWpNkvnK6WH-3" vertex="1" connectable="0">
          <mxGeometry x="0.1643" y="-1" relative="1" as="geometry">
            <mxPoint as="offset" />
          </mxGeometry>
        </mxCell>
        <mxCell id="busUsJbX6CWpNkvnK6WH-6" style="edgeStyle=orthogonalEdgeStyle;rounded=0;orthogonalLoop=1;jettySize=auto;html=1;" parent="Cn_z-d5cZoHQZC6IPEJ7-1" source="NsUDPSb2mLZtXg8WYORT-104" edge="1">
          <mxGeometry relative="1" as="geometry">
            <mxPoint x="1050" y="500" as="targetPoint" />
          </mxGeometry>
        </mxCell>
        <mxCell id="busUsJbX6CWpNkvnK6WH-7" style="edgeStyle=orthogonalEdgeStyle;rounded=0;orthogonalLoop=1;jettySize=auto;html=1;strokeColor=#000000;" parent="Cn_z-d5cZoHQZC6IPEJ7-1" source="NsUDPSb2mLZtXg8WYORT-103" edge="1">
          <mxGeometry relative="1" as="geometry">
            <mxPoint x="970" y="401" as="targetPoint" />
          </mxGeometry>
        </mxCell>
        <mxCell id="busUsJbX6CWpNkvnK6WH-11" style="edgeStyle=orthogonalEdgeStyle;rounded=0;orthogonalLoop=1;jettySize=auto;html=1;strokeColor=#000000;" parent="Cn_z-d5cZoHQZC6IPEJ7-1" source="NsUDPSb2mLZtXg8WYORT-104" edge="1">
          <mxGeometry relative="1" as="geometry">
            <mxPoint x="970" y="459" as="targetPoint" />
          </mxGeometry>
        </mxCell>
        <mxCell id="4luAZHgerdAaVVJ_72sG-1" style="edgeStyle=orthogonalEdgeStyle;rounded=0;orthogonalLoop=1;jettySize=auto;html=1;" parent="Cn_z-d5cZoHQZC6IPEJ7-1" source="cPukek1dgGj2Ov7jdAaH-8" target="X7omMuUb_odI4xtAwAQJ-4" edge="1">
          <mxGeometry relative="1" as="geometry" />
        </mxCell>
        <mxCell id="4luAZHgerdAaVVJ_72sG-6" style="edgeStyle=orthogonalEdgeStyle;rounded=0;orthogonalLoop=1;jettySize=auto;html=1;exitX=0.25;exitY=1;exitDx=0;exitDy=0;entryX=0;entryY=0.5;entryDx=0;entryDy=0;dashed=1;strokeColor=#000000;" parent="Cn_z-d5cZoHQZC6IPEJ7-1" source="NsUDPSb2mLZtXg8WYORT-105" target="X7omMuUb_odI4xtAwAQJ-3" edge="1">
          <mxGeometry relative="1" as="geometry">
            <Array as="points">
              <mxPoint x="1260" y="800" />
              <mxPoint x="210" y="800" />
              <mxPoint x="210" y="450" />
            </Array>
          </mxGeometry>
        </mxCell>
        <mxCell id="X9wui_urj0GCA_CZimkI-0" value="代理商-申请提现 退款流程图" style="text;html=1;align=center;verticalAlign=middle;resizable=0;points=[];autosize=1;fontSize=19;fontStyle=1" parent="Cn_z-d5cZoHQZC6IPEJ7-1" vertex="1">
          <mxGeometry x="745" y="20" width="260" height="30" as="geometry" />
        </mxCell>
      </root>
    </mxGraphModel>
  </diagram>
  <diagram id="ZEXPQdUD7HqrQSaAMY07" name="第 3 页">
    <mxGraphModel dx="1422" dy="794" grid="1" gridSize="10" guides="1" tooltips="1" connect="1" arrows="1" fold="1" page="1" pageScale="1" pageWidth="583" pageHeight="827" math="0" shadow="0">
      <root>
        <mxCell id="Jd9u-9bStoHvEkMrotFd-0" />
        <mxCell id="Jd9u-9bStoHvEkMrotFd-1" parent="Jd9u-9bStoHvEkMrotFd-0" />
        <mxCell id="iYFu33_GuupKADUWWJhY-0" value="小程序" style="swimlane;" parent="Jd9u-9bStoHvEkMrotFd-1" vertex="1">
          <mxGeometry x="140" y="80" width="290" height="760" as="geometry">
            <mxRectangle x="40" y="100" width="70" height="23" as="alternateBounds" />
          </mxGeometry>
        </mxCell>
        <mxCell id="iYFu33_GuupKADUWWJhY-1" value="&lt;br&gt;&lt;br&gt;代理商" style="shape=actor;whiteSpace=wrap;html=1;" parent="iYFu33_GuupKADUWWJhY-0" vertex="1">
          <mxGeometry x="10" y="190" width="40" height="50" as="geometry" />
        </mxCell>
        <mxCell id="iYFu33_GuupKADUWWJhY-2" value="申请提现" style="shape=process;whiteSpace=wrap;html=1;backgroundOutline=1;" parent="iYFu33_GuupKADUWWJhY-0" vertex="1">
          <mxGeometry x="90" y="70" width="120" height="60" as="geometry" />
        </mxCell>
        <mxCell id="iYFu33_GuupKADUWWJhY-3" value="状态消息" style="rounded=0;whiteSpace=wrap;html=1;dashed=1;" parent="iYFu33_GuupKADUWWJhY-0" vertex="1">
          <mxGeometry x="90" y="195" width="120" height="40" as="geometry" />
        </mxCell>
        <mxCell id="iYFu33_GuupKADUWWJhY-4" value="提现记录&lt;br&gt;（待审核）" style="rounded=0;whiteSpace=wrap;html=1;" parent="iYFu33_GuupKADUWWJhY-0" vertex="1">
          <mxGeometry x="90" y="270" width="120" height="40" as="geometry" />
        </mxCell>
        <mxCell id="iYFu33_GuupKADUWWJhY-5" value="提现记录&lt;br&gt;（拒绝）" style="rounded=0;whiteSpace=wrap;html=1;" parent="iYFu33_GuupKADUWWJhY-0" vertex="1">
          <mxGeometry x="90" y="350" width="120" height="40" as="geometry" />
        </mxCell>
        <mxCell id="iYFu33_GuupKADUWWJhY-6" value="提现记录&lt;br&gt;（通过/退款失败）" style="rounded=0;whiteSpace=wrap;html=1;" parent="iYFu33_GuupKADUWWJhY-0" vertex="1">
          <mxGeometry x="90" y="440" width="120" height="40" as="geometry" />
        </mxCell>
        <mxCell id="iYFu33_GuupKADUWWJhY-7" style="edgeStyle=orthogonalEdgeStyle;rounded=0;orthogonalLoop=1;jettySize=auto;html=1;entryX=0;entryY=0.5;entryDx=0;entryDy=0;" parent="iYFu33_GuupKADUWWJhY-0" source="iYFu33_GuupKADUWWJhY-1" target="iYFu33_GuupKADUWWJhY-2" edge="1">
          <mxGeometry relative="1" as="geometry">
            <mxPoint x="20" y="100" as="targetPoint" />
            <Array as="points">
              <mxPoint x="20" y="100" />
            </Array>
          </mxGeometry>
        </mxCell>
        <mxCell id="iYFu33_GuupKADUWWJhY-8" value="" style="endArrow=classic;html=1;entryX=0.9;entryY=0.5;entryDx=0;entryDy=0;entryPerimeter=0;exitX=0;exitY=0.5;exitDx=0;exitDy=0;" parent="iYFu33_GuupKADUWWJhY-0" source="iYFu33_GuupKADUWWJhY-3" target="iYFu33_GuupKADUWWJhY-1" edge="1">
          <mxGeometry width="50" height="50" relative="1" as="geometry">
            <mxPoint x="90" y="240" as="sourcePoint" />
            <mxPoint x="60" y="240" as="targetPoint" />
            <Array as="points" />
          </mxGeometry>
        </mxCell>
        <mxCell id="iYFu33_GuupKADUWWJhY-9" value="api接口" style="swimlane;" parent="Jd9u-9bStoHvEkMrotFd-1" vertex="1">
          <mxGeometry x="500" y="80" width="370" height="760" as="geometry" />
        </mxCell>
        <mxCell id="iYFu33_GuupKADUWWJhY-11" value="储备金余额充足" style="rounded=0;whiteSpace=wrap;html=1;" parent="iYFu33_GuupKADUWWJhY-9" vertex="1">
          <mxGeometry x="140" y="40" width="120" height="40" as="geometry" />
        </mxCell>
        <mxCell id="tr2-d4yrF4YFfxxrfl98-14" style="edgeStyle=orthogonalEdgeStyle;rounded=0;orthogonalLoop=1;jettySize=auto;html=1;entryX=0.5;entryY=0;entryDx=0;entryDy=0;strokeColor=#000000;strokeWidth=1;" parent="iYFu33_GuupKADUWWJhY-9" source="iYFu33_GuupKADUWWJhY-17" target="iYFu33_GuupKADUWWJhY-21" edge="1">
          <mxGeometry relative="1" as="geometry" />
        </mxCell>
        <mxCell id="iYFu33_GuupKADUWWJhY-17" value="新增提现记录" style="rounded=0;whiteSpace=wrap;html=1;" parent="iYFu33_GuupKADUWWJhY-9" vertex="1">
          <mxGeometry x="140" y="134" width="120" height="40" as="geometry" />
        </mxCell>
        <mxCell id="iYFu33_GuupKADUWWJhY-21" value="更新代理商&lt;br&gt;储备金余额&lt;br&gt;和 累计消耗储备金" style="rounded=0;whiteSpace=wrap;html=1;" parent="iYFu33_GuupKADUWWJhY-9" vertex="1">
          <mxGeometry x="140" y="220" width="120" height="50" as="geometry" />
        </mxCell>
        <mxCell id="iYFu33_GuupKADUWWJhY-22" value="" style="strokeWidth=2;html=1;shape=mxgraph.flowchart.annotation_1;align=left;pointerEvents=1;" parent="iYFu33_GuupKADUWWJhY-9" vertex="1">
          <mxGeometry x="122" y="70" width="20" height="170" as="geometry" />
        </mxCell>
        <mxCell id="iYFu33_GuupKADUWWJhY-23" value="条件成立" style="strokeWidth=2;html=1;shape=mxgraph.flowchart.decision;whiteSpace=wrap;" parent="iYFu33_GuupKADUWWJhY-9" vertex="1">
          <mxGeometry x="30" y="170" width="70" height="100" as="geometry" />
        </mxCell>
        <mxCell id="iYFu33_GuupKADUWWJhY-25" value="是" style="text;html=1;align=center;verticalAlign=middle;resizable=0;points=[];autosize=1;" parent="iYFu33_GuupKADUWWJhY-9" vertex="1">
          <mxGeometry x="50" y="268" width="30" height="20" as="geometry" />
        </mxCell>
        <mxCell id="iYFu33_GuupKADUWWJhY-26" value="" style="endArrow=classic;html=1;strokeWidth=1;entryX=1;entryY=0.5;entryDx=0;entryDy=0;entryPerimeter=0;" parent="iYFu33_GuupKADUWWJhY-9" target="iYFu33_GuupKADUWWJhY-23" edge="1">
          <mxGeometry width="50" height="50" relative="1" as="geometry">
            <mxPoint x="120" y="220" as="sourcePoint" />
            <mxPoint x="170" y="170" as="targetPoint" />
          </mxGeometry>
        </mxCell>
        <mxCell id="iYFu33_GuupKADUWWJhY-27" value="RabbitMQ" style="swimlane;fontStyle=0;childLayout=stackLayout;horizontal=1;startSize=26;fillColor=none;horizontalStack=0;resizeParent=1;resizeParentMax=0;resizeLast=0;collapsible=1;marginBottom=0;comic=0;strokeColor=#666666;strokeWidth=1;" parent="iYFu33_GuupKADUWWJhY-9" vertex="1">
          <mxGeometry x="220" y="560" width="140" height="104" as="geometry" />
        </mxCell>
        <mxCell id="iYFu33_GuupKADUWWJhY-28" value="1、创建退款参数" style="text;strokeColor=none;fillColor=none;align=left;verticalAlign=top;spacingLeft=4;spacingRight=4;overflow=hidden;rotatable=0;points=[[0,0.5],[1,0.5]];portConstraint=eastwest;" parent="iYFu33_GuupKADUWWJhY-27" vertex="1">
          <mxGeometry y="26" width="140" height="26" as="geometry" />
        </mxCell>
        <mxCell id="iYFu33_GuupKADUWWJhY-29" value="2、发起退款请求&#xa;" style="text;strokeColor=none;fillColor=none;align=left;verticalAlign=top;spacingLeft=4;spacingRight=4;overflow=hidden;rotatable=0;points=[[0,0.5],[1,0.5]];portConstraint=eastwest;perimeterSpacing=1;" parent="iYFu33_GuupKADUWWJhY-27" vertex="1">
          <mxGeometry y="52" width="140" height="26" as="geometry" />
        </mxCell>
        <mxCell id="iYFu33_GuupKADUWWJhY-30" value="3、更新退款状态" style="text;strokeColor=none;fillColor=none;align=left;verticalAlign=top;spacingLeft=4;spacingRight=4;overflow=hidden;rotatable=0;points=[[0,0.5],[1,0.5]];portConstraint=eastwest;" parent="iYFu33_GuupKADUWWJhY-27" vertex="1">
          <mxGeometry y="78" width="140" height="26" as="geometry" />
        </mxCell>
        <mxCell id="iYFu33_GuupKADUWWJhY-31" value="退款成功/失败回调" style="swimlane;fontStyle=0;childLayout=stackLayout;horizontal=1;startSize=26;fillColor=none;horizontalStack=0;resizeParent=1;resizeParentMax=0;resizeLast=0;collapsible=1;marginBottom=0;comic=0;strokeColor=#666666;strokeWidth=1;" parent="iYFu33_GuupKADUWWJhY-9" vertex="1">
          <mxGeometry x="20" y="474" width="180" height="190" as="geometry" />
        </mxCell>
        <mxCell id="iYFu33_GuupKADUWWJhY-32" value="1、更新修改提现状态&#xa;1.1、根据已到账金额，计算出&#xa;部分到账，还是全部到账状态&#xa;1.2、全部到账后，往 商家&#xa;储备金明细表 新增一条记录" style="text;strokeColor=none;fillColor=none;align=left;verticalAlign=top;spacingLeft=4;spacingRight=4;overflow=hidden;rotatable=0;points=[[0,0.5],[1,0.5]];portConstraint=eastwest;" parent="iYFu33_GuupKADUWWJhY-31" vertex="1">
          <mxGeometry y="26" width="180" height="84" as="geometry" />
        </mxCell>
        <mxCell id="iYFu33_GuupKADUWWJhY-33" value="2、更新充值记录的 退款金额&#xa;&#xa;3.更新退款记录表状态" style="text;strokeColor=none;fillColor=none;align=left;verticalAlign=top;spacingLeft=4;spacingRight=4;overflow=hidden;rotatable=0;points=[[0,0.5],[1,0.5]];portConstraint=eastwest;perimeterSpacing=1;" parent="iYFu33_GuupKADUWWJhY-31" vertex="1">
          <mxGeometry y="110" width="180" height="80" as="geometry" />
        </mxCell>
        <mxCell id="iYFu33_GuupKADUWWJhY-34" style="edgeStyle=orthogonalEdgeStyle;rounded=0;orthogonalLoop=1;jettySize=auto;html=1;entryX=0;entryY=0.5;entryDx=0;entryDy=0;" parent="Jd9u-9bStoHvEkMrotFd-1" source="iYFu33_GuupKADUWWJhY-2" target="iYFu33_GuupKADUWWJhY-11" edge="1">
          <mxGeometry relative="1" as="geometry" />
        </mxCell>
        <mxCell id="iYFu33_GuupKADUWWJhY-35" value="后台系统" style="swimlane;" parent="Jd9u-9bStoHvEkMrotFd-1" vertex="1">
          <mxGeometry x="900" y="90" width="550" height="750" as="geometry" />
        </mxCell>
        <mxCell id="iYFu33_GuupKADUWWJhY-36" style="edgeStyle=orthogonalEdgeStyle;rounded=0;orthogonalLoop=1;jettySize=auto;html=1;entryX=0.5;entryY=0;entryDx=0;entryDy=0;strokeWidth=1;" parent="iYFu33_GuupKADUWWJhY-35" source="iYFu33_GuupKADUWWJhY-37" target="iYFu33_GuupKADUWWJhY-44" edge="1">
          <mxGeometry relative="1" as="geometry" />
        </mxCell>
        <mxCell id="iYFu33_GuupKADUWWJhY-37" value="提现记录&lt;br&gt;（待审核）" style="rounded=0;whiteSpace=wrap;html=1;" parent="iYFu33_GuupKADUWWJhY-35" vertex="1">
          <mxGeometry x="231.43" y="110" width="80" height="40" as="geometry" />
        </mxCell>
        <mxCell id="iYFu33_GuupKADUWWJhY-38" style="edgeStyle=orthogonalEdgeStyle;rounded=0;orthogonalLoop=1;jettySize=auto;html=1;entryX=0.5;entryY=0;entryDx=0;entryDy=0;strokeWidth=1;" parent="iYFu33_GuupKADUWWJhY-35" source="iYFu33_GuupKADUWWJhY-39" target="iYFu33_GuupKADUWWJhY-37" edge="1">
          <mxGeometry relative="1" as="geometry" />
        </mxCell>
        <mxCell id="iYFu33_GuupKADUWWJhY-39" value="&lt;br&gt;&lt;br&gt;运营&lt;br&gt;人员" style="shape=actor;whiteSpace=wrap;html=1;" parent="iYFu33_GuupKADUWWJhY-35" vertex="1">
          <mxGeometry x="252.87" y="27" width="37.13" height="63" as="geometry" />
        </mxCell>
        <mxCell id="iYFu33_GuupKADUWWJhY-40" style="edgeStyle=orthogonalEdgeStyle;rounded=0;orthogonalLoop=1;jettySize=auto;html=1;entryX=0.5;entryY=0;entryDx=0;entryDy=0;strokeWidth=1;" parent="iYFu33_GuupKADUWWJhY-35" source="iYFu33_GuupKADUWWJhY-44" target="iYFu33_GuupKADUWWJhY-61" edge="1">
          <mxGeometry relative="1" as="geometry" />
        </mxCell>
        <mxCell id="iYFu33_GuupKADUWWJhY-41" value="通过" style="edgeLabel;html=1;align=center;verticalAlign=middle;resizable=0;points=[];" parent="iYFu33_GuupKADUWWJhY-40" vertex="1" connectable="0">
          <mxGeometry x="0.231" y="1" relative="1" as="geometry">
            <mxPoint as="offset" />
          </mxGeometry>
        </mxCell>
        <mxCell id="iYFu33_GuupKADUWWJhY-42" style="edgeStyle=orthogonalEdgeStyle;rounded=0;orthogonalLoop=1;jettySize=auto;html=1;entryX=0.5;entryY=0;entryDx=0;entryDy=0;strokeWidth=1;" parent="iYFu33_GuupKADUWWJhY-35" source="iYFu33_GuupKADUWWJhY-44" target="iYFu33_GuupKADUWWJhY-46" edge="1">
          <mxGeometry relative="1" as="geometry" />
        </mxCell>
        <mxCell id="iYFu33_GuupKADUWWJhY-43" value="拒绝" style="edgeLabel;html=1;align=center;verticalAlign=middle;resizable=0;points=[];" parent="iYFu33_GuupKADUWWJhY-42" vertex="1" connectable="0">
          <mxGeometry x="0.0869" y="1" relative="1" as="geometry">
            <mxPoint as="offset" />
          </mxGeometry>
        </mxCell>
        <mxCell id="iYFu33_GuupKADUWWJhY-44" value="审核" style="rhombus;whiteSpace=wrap;html=1;strokeColor=#000000;strokeWidth=2;fillColor=none;" parent="iYFu33_GuupKADUWWJhY-35" vertex="1">
          <mxGeometry x="231.43" y="180" width="80" height="80" as="geometry" />
        </mxCell>
        <mxCell id="tr2-d4yrF4YFfxxrfl98-10" style="edgeStyle=orthogonalEdgeStyle;rounded=0;orthogonalLoop=1;jettySize=auto;html=1;entryX=0.5;entryY=0;entryDx=0;entryDy=0;strokeColor=#000000;strokeWidth=1;" parent="iYFu33_GuupKADUWWJhY-35" source="iYFu33_GuupKADUWWJhY-46" target="iYFu33_GuupKADUWWJhY-59" edge="1">
          <mxGeometry relative="1" as="geometry" />
        </mxCell>
        <mxCell id="iYFu33_GuupKADUWWJhY-46" value="是否待审核状态" style="rounded=0;whiteSpace=wrap;html=1;" parent="iYFu33_GuupKADUWWJhY-35" vertex="1">
          <mxGeometry x="330" y="240" width="120" height="30" as="geometry" />
        </mxCell>
        <mxCell id="iYFu33_GuupKADUWWJhY-47" style="edgeStyle=orthogonalEdgeStyle;rounded=0;orthogonalLoop=1;jettySize=auto;html=1;entryX=1;entryY=0.75;entryDx=0;entryDy=0;strokeWidth=1;" parent="iYFu33_GuupKADUWWJhY-35" source="iYFu33_GuupKADUWWJhY-48" target="iYFu33_GuupKADUWWJhY-39" edge="1">
          <mxGeometry relative="1" as="geometry">
            <Array as="points">
              <mxPoint x="420" y="74" />
            </Array>
          </mxGeometry>
        </mxCell>
        <mxCell id="iYFu33_GuupKADUWWJhY-48" value="状态消息&lt;br&gt;（成功/失败）" style="rounded=0;whiteSpace=wrap;html=1;dashed=1;" parent="iYFu33_GuupKADUWWJhY-35" vertex="1">
          <mxGeometry x="370" y="110" width="80" height="40" as="geometry" />
        </mxCell>
        <mxCell id="iYFu33_GuupKADUWWJhY-57" style="edgeStyle=orthogonalEdgeStyle;rounded=0;orthogonalLoop=1;jettySize=auto;html=1;exitX=0.5;exitY=1;exitDx=0;exitDy=0;" parent="iYFu33_GuupKADUWWJhY-35" edge="1">
          <mxGeometry relative="1" as="geometry">
            <mxPoint x="390" y="559" as="sourcePoint" />
            <mxPoint x="390" y="559" as="targetPoint" />
          </mxGeometry>
        </mxCell>
        <mxCell id="iYFu33_GuupKADUWWJhY-59" value="恢复代理商&lt;br&gt;储备金余额&lt;br&gt;和 累计消耗储备金" style="rounded=0;whiteSpace=wrap;html=1;" parent="iYFu33_GuupKADUWWJhY-35" vertex="1">
          <mxGeometry x="330" y="294" width="120" height="60" as="geometry" />
        </mxCell>
        <mxCell id="iYFu33_GuupKADUWWJhY-60" style="edgeStyle=orthogonalEdgeStyle;rounded=0;orthogonalLoop=1;jettySize=auto;html=1;entryX=0.5;entryY=0;entryDx=0;entryDy=0;strokeWidth=1;" parent="iYFu33_GuupKADUWWJhY-35" source="iYFu33_GuupKADUWWJhY-61" target="iYFu33_GuupKADUWWJhY-63" edge="1">
          <mxGeometry relative="1" as="geometry" />
        </mxCell>
        <mxCell id="iYFu33_GuupKADUWWJhY-61" value="是否待审核状态" style="rounded=0;whiteSpace=wrap;html=1;" parent="iYFu33_GuupKADUWWJhY-35" vertex="1">
          <mxGeometry x="90" y="240" width="120" height="30" as="geometry" />
        </mxCell>
        <mxCell id="tr2-d4yrF4YFfxxrfl98-6" style="edgeStyle=orthogonalEdgeStyle;rounded=0;orthogonalLoop=1;jettySize=auto;html=1;entryX=0.5;entryY=0;entryDx=0;entryDy=0;strokeColor=#000000;strokeWidth=1;" parent="iYFu33_GuupKADUWWJhY-35" source="iYFu33_GuupKADUWWJhY-63" target="jVEu-uj5hXn1NBA80T9l-0" edge="1">
          <mxGeometry relative="1" as="geometry" />
        </mxCell>
        <mxCell id="iYFu33_GuupKADUWWJhY-63" value="判断是&lt;br&gt;全部到账/部分到账&lt;br&gt;计算出本次退款金额" style="rounded=0;whiteSpace=wrap;html=1;" parent="iYFu33_GuupKADUWWJhY-35" vertex="1">
          <mxGeometry x="90" y="296" width="120" height="64" as="geometry" />
        </mxCell>
        <mxCell id="tr2-d4yrF4YFfxxrfl98-9" style="edgeStyle=orthogonalEdgeStyle;rounded=0;orthogonalLoop=1;jettySize=auto;html=1;entryX=0.5;entryY=0;entryDx=0;entryDy=0;strokeColor=#000000;strokeWidth=1;" parent="iYFu33_GuupKADUWWJhY-35" source="iYFu33_GuupKADUWWJhY-64" target="iYFu33_GuupKADUWWJhY-66" edge="1">
          <mxGeometry relative="1" as="geometry" />
        </mxCell>
        <mxCell id="iYFu33_GuupKADUWWJhY-64" value="修改提现状态&lt;br&gt;为 【已通过】" style="rounded=0;whiteSpace=wrap;html=1;" parent="iYFu33_GuupKADUWWJhY-35" vertex="1">
          <mxGeometry x="91" y="520" width="120" height="38.5" as="geometry" />
        </mxCell>
        <mxCell id="iYFu33_GuupKADUWWJhY-65" value="修改提现状态&lt;br&gt;为 【已拒绝】" style="rounded=0;whiteSpace=wrap;html=1;" parent="iYFu33_GuupKADUWWJhY-35" vertex="1">
          <mxGeometry x="330" y="388" width="120" height="35" as="geometry" />
        </mxCell>
        <mxCell id="tr2-d4yrF4YFfxxrfl98-0" style="edgeStyle=orthogonalEdgeStyle;rounded=0;orthogonalLoop=1;jettySize=auto;html=1;exitX=0.25;exitY=1;exitDx=0;exitDy=0;entryX=0;entryY=0.25;entryDx=0;entryDy=0;strokeColor=#4D9900;" parent="iYFu33_GuupKADUWWJhY-35" source="iYFu33_GuupKADUWWJhY-66" target="iYFu33_GuupKADUWWJhY-67" edge="1">
          <mxGeometry relative="1" as="geometry">
            <Array as="points">
              <mxPoint x="120" y="652" />
              <mxPoint x="40" y="652" />
              <mxPoint x="40" y="120" />
            </Array>
          </mxGeometry>
        </mxCell>
        <mxCell id="tr2-d4yrF4YFfxxrfl98-1" value="操作成功" style="edgeLabel;html=1;align=center;verticalAlign=middle;resizable=0;points=[];" parent="tr2-d4yrF4YFfxxrfl98-0" vertex="1" connectable="0">
          <mxGeometry x="-0.7747" y="-2" relative="1" as="geometry">
            <mxPoint as="offset" />
          </mxGeometry>
        </mxCell>
        <mxCell id="iYFu33_GuupKADUWWJhY-66" value="发送消息队列&lt;br&gt;(通知退款)" style="rounded=0;whiteSpace=wrap;html=1;" parent="iYFu33_GuupKADUWWJhY-35" vertex="1">
          <mxGeometry x="92" y="592" width="119" height="46" as="geometry" />
        </mxCell>
        <mxCell id="iYFu33_GuupKADUWWJhY-67" value="状态消息&lt;br&gt;（成功/失败）" style="rounded=0;whiteSpace=wrap;html=1;dashed=1;" parent="iYFu33_GuupKADUWWJhY-35" vertex="1">
          <mxGeometry x="90" y="110" width="80" height="40" as="geometry" />
        </mxCell>
        <mxCell id="iYFu33_GuupKADUWWJhY-68" value="" style="strokeWidth=2;html=1;shape=mxgraph.flowchart.annotation_1;align=left;pointerEvents=1;fillColor=none;" parent="iYFu33_GuupKADUWWJhY-35" vertex="1">
          <mxGeometry x="70" y="258" width="21" height="352" as="geometry" />
        </mxCell>
        <mxCell id="iYFu33_GuupKADUWWJhY-69" style="edgeStyle=orthogonalEdgeStyle;rounded=0;orthogonalLoop=1;jettySize=auto;html=1;exitX=0;exitY=0.5;exitDx=0;exitDy=0;exitPerimeter=0;entryX=1;entryY=0.75;entryDx=0;entryDy=0;strokeWidth=1;strokeColor=#FF6666;" parent="iYFu33_GuupKADUWWJhY-35" source="iYFu33_GuupKADUWWJhY-71" target="iYFu33_GuupKADUWWJhY-48" edge="1">
          <mxGeometry relative="1" as="geometry">
            <Array as="points">
              <mxPoint x="470" y="360" />
              <mxPoint x="480" y="360" />
              <mxPoint x="480" y="140" />
            </Array>
          </mxGeometry>
        </mxCell>
        <mxCell id="iYFu33_GuupKADUWWJhY-70" value="操作失败" style="edgeLabel;html=1;align=center;verticalAlign=middle;resizable=0;points=[];" parent="iYFu33_GuupKADUWWJhY-69" vertex="1" connectable="0">
          <mxGeometry x="0.5215" y="2" relative="1" as="geometry">
            <mxPoint x="-1.5" as="offset" />
          </mxGeometry>
        </mxCell>
        <mxCell id="iYFu33_GuupKADUWWJhY-71" value="" style="strokeWidth=2;html=1;shape=mxgraph.flowchart.annotation_1;align=left;pointerEvents=1;fillColor=none;direction=west;" parent="iYFu33_GuupKADUWWJhY-35" vertex="1">
          <mxGeometry x="450" y="260" width="20" height="140" as="geometry" />
        </mxCell>
        <mxCell id="iYFu33_GuupKADUWWJhY-74" style="edgeStyle=orthogonalEdgeStyle;rounded=0;orthogonalLoop=1;jettySize=auto;html=1;strokeWidth=1;entryX=0;entryY=0.75;entryDx=0;entryDy=0;strokeColor=#FF6666;" parent="iYFu33_GuupKADUWWJhY-35" source="iYFu33_GuupKADUWWJhY-68" target="iYFu33_GuupKADUWWJhY-67" edge="1">
          <mxGeometry relative="1" as="geometry">
            <mxPoint x="50" y="140" as="targetPoint" />
            <Array as="points">
              <mxPoint x="60" y="334" />
              <mxPoint x="60" y="140" />
            </Array>
          </mxGeometry>
        </mxCell>
        <mxCell id="iYFu33_GuupKADUWWJhY-75" value="操作失败" style="edgeLabel;html=1;align=center;verticalAlign=middle;resizable=0;points=[];" parent="iYFu33_GuupKADUWWJhY-74" vertex="1" connectable="0">
          <mxGeometry x="0.2308" y="-3" relative="1" as="geometry">
            <mxPoint as="offset" />
          </mxGeometry>
        </mxCell>
        <mxCell id="iYFu33_GuupKADUWWJhY-76" style="edgeStyle=orthogonalEdgeStyle;rounded=0;orthogonalLoop=1;jettySize=auto;html=1;strokeWidth=1;entryX=1;entryY=0.25;entryDx=0;entryDy=0;strokeColor=#009900;" parent="iYFu33_GuupKADUWWJhY-35" source="iYFu33_GuupKADUWWJhY-65" target="iYFu33_GuupKADUWWJhY-48" edge="1">
          <mxGeometry relative="1" as="geometry">
            <mxPoint x="530" y="530" as="targetPoint" />
            <Array as="points">
              <mxPoint x="390" y="450" />
              <mxPoint x="510" y="450" />
              <mxPoint x="510" y="120" />
            </Array>
          </mxGeometry>
        </mxCell>
        <mxCell id="iYFu33_GuupKADUWWJhY-77" value="操作成功" style="edgeLabel;html=1;align=center;verticalAlign=middle;resizable=0;points=[];" parent="iYFu33_GuupKADUWWJhY-76" vertex="1" connectable="0">
          <mxGeometry x="-0.8529" relative="1" as="geometry">
            <mxPoint as="offset" />
          </mxGeometry>
        </mxCell>
        <mxCell id="iYFu33_GuupKADUWWJhY-78" style="edgeStyle=orthogonalEdgeStyle;rounded=0;orthogonalLoop=1;jettySize=auto;html=1;strokeWidth=1;entryX=0;entryY=0.75;entryDx=0;entryDy=0;" parent="iYFu33_GuupKADUWWJhY-35" source="iYFu33_GuupKADUWWJhY-67" target="iYFu33_GuupKADUWWJhY-39" edge="1">
          <mxGeometry relative="1" as="geometry">
            <mxPoint x="140" y="50" as="targetPoint" />
            <Array as="points">
              <mxPoint x="130" y="74" />
            </Array>
          </mxGeometry>
        </mxCell>
        <mxCell id="tr2-d4yrF4YFfxxrfl98-7" style="edgeStyle=orthogonalEdgeStyle;rounded=0;orthogonalLoop=1;jettySize=auto;html=1;strokeColor=#000000;strokeWidth=1;" parent="iYFu33_GuupKADUWWJhY-35" source="jVEu-uj5hXn1NBA80T9l-0" target="A2zLMhlnRO5AR16TB1OP-0" edge="1">
          <mxGeometry relative="1" as="geometry" />
        </mxCell>
        <mxCell id="jVEu-uj5hXn1NBA80T9l-0" value="最近1年&lt;br&gt;有可退款的充值记录" style="rounded=0;whiteSpace=wrap;html=1;" parent="iYFu33_GuupKADUWWJhY-35" vertex="1">
          <mxGeometry x="91" y="388" width="120" height="40" as="geometry" />
        </mxCell>
        <mxCell id="tr2-d4yrF4YFfxxrfl98-8" style="edgeStyle=orthogonalEdgeStyle;rounded=0;orthogonalLoop=1;jettySize=auto;html=1;entryX=0.5;entryY=0;entryDx=0;entryDy=0;strokeColor=#000000;strokeWidth=1;" parent="iYFu33_GuupKADUWWJhY-35" source="A2zLMhlnRO5AR16TB1OP-0" target="iYFu33_GuupKADUWWJhY-64" edge="1">
          <mxGeometry relative="1" as="geometry" />
        </mxCell>
        <mxCell id="A2zLMhlnRO5AR16TB1OP-0" value="添加汇付退款记录" style="rounded=0;whiteSpace=wrap;html=1;" parent="iYFu33_GuupKADUWWJhY-35" vertex="1">
          <mxGeometry x="91" y="450" width="120" height="40" as="geometry" />
        </mxCell>
        <mxCell id="TUf9cryZ1W5pykRoLDJF-2" value="" style="endArrow=classic;html=1;entryX=1;entryY=0.5;entryDx=0;entryDy=0;" edge="1" parent="iYFu33_GuupKADUWWJhY-35" target="iYFu33_GuupKADUWWJhY-29">
          <mxGeometry relative="1" as="geometry">
            <mxPoint x="160" y="640" as="sourcePoint" />
            <mxPoint x="270" y="670" as="targetPoint" />
            <Array as="points">
              <mxPoint x="160" y="670" />
              <mxPoint x="20" y="670" />
              <mxPoint x="20" y="615" />
            </Array>
          </mxGeometry>
        </mxCell>
        <mxCell id="TUf9cryZ1W5pykRoLDJF-3" value="" style="shape=message;html=1;outlineConnect=0;" vertex="1" parent="TUf9cryZ1W5pykRoLDJF-2">
          <mxGeometry width="20" height="14" relative="1" as="geometry">
            <mxPoint x="57" y="-7" as="offset" />
          </mxGeometry>
        </mxCell>
        <mxCell id="iYFu33_GuupKADUWWJhY-88" style="edgeStyle=orthogonalEdgeStyle;rounded=0;orthogonalLoop=1;jettySize=auto;html=1;startSize=26;strokeColor=#000000;strokeWidth=1;" parent="Jd9u-9bStoHvEkMrotFd-1" edge="1">
          <mxGeometry relative="1" as="geometry">
            <mxPoint x="590" y="744" as="targetPoint" />
            <mxPoint x="690" y="944" as="sourcePoint" />
          </mxGeometry>
        </mxCell>
        <mxCell id="TUf9cryZ1W5pykRoLDJF-0" value="退款成功/失败" style="edgeLabel;html=1;align=center;verticalAlign=middle;resizable=0;points=[];" vertex="1" connectable="0" parent="iYFu33_GuupKADUWWJhY-88">
          <mxGeometry x="-0.46" y="-3" relative="1" as="geometry">
            <mxPoint x="-9" y="-31" as="offset" />
          </mxGeometry>
        </mxCell>
        <mxCell id="iYFu33_GuupKADUWWJhY-89" value="&lt;span style=&quot;font-weight: 700&quot;&gt;adaPay三方支付&lt;/span&gt;" style="shape=process;whiteSpace=wrap;html=1;backgroundOutline=1;comic=0;startSize=26;strokeColor=#666666;strokeWidth=1;fillColor=none;" parent="Jd9u-9bStoHvEkMrotFd-1" vertex="1">
          <mxGeometry x="690" y="910" width="160" height="80" as="geometry" />
        </mxCell>
        <mxCell id="iYFu33_GuupKADUWWJhY-91" style="edgeStyle=orthogonalEdgeStyle;rounded=0;orthogonalLoop=1;jettySize=auto;html=1;entryX=1;entryY=0.75;entryDx=0;entryDy=0;strokeColor=#009900;" parent="Jd9u-9bStoHvEkMrotFd-1" source="iYFu33_GuupKADUWWJhY-25" target="iYFu33_GuupKADUWWJhY-4" edge="1">
          <mxGeometry relative="1" as="geometry">
            <mxPoint x="561.25" y="373" as="sourcePoint" />
            <Array as="points">
              <mxPoint x="565" y="380" />
            </Array>
          </mxGeometry>
        </mxCell>
        <mxCell id="iYFu33_GuupKADUWWJhY-92" value="操作成功" style="edgeLabel;html=1;align=center;verticalAlign=middle;resizable=0;points=[];" parent="iYFu33_GuupKADUWWJhY-91" vertex="1" connectable="0">
          <mxGeometry x="-0.1177" relative="1" as="geometry">
            <mxPoint as="offset" />
          </mxGeometry>
        </mxCell>
        <mxCell id="iYFu33_GuupKADUWWJhY-93" style="edgeStyle=orthogonalEdgeStyle;rounded=0;orthogonalLoop=1;jettySize=auto;html=1;strokeColor=#FF6666;" parent="Jd9u-9bStoHvEkMrotFd-1" source="iYFu33_GuupKADUWWJhY-23" edge="1">
          <mxGeometry relative="1" as="geometry">
            <mxPoint x="360" y="300" as="targetPoint" />
          </mxGeometry>
        </mxCell>
        <mxCell id="iYFu33_GuupKADUWWJhY-94" value="否，操作失败" style="edgeLabel;html=1;align=center;verticalAlign=middle;resizable=0;points=[];" parent="iYFu33_GuupKADUWWJhY-93" vertex="1" connectable="0">
          <mxGeometry x="0.1643" y="-1" relative="1" as="geometry">
            <mxPoint as="offset" />
          </mxGeometry>
        </mxCell>
        <mxCell id="iYFu33_GuupKADUWWJhY-98" style="edgeStyle=orthogonalEdgeStyle;rounded=0;orthogonalLoop=1;jettySize=auto;html=1;" parent="Jd9u-9bStoHvEkMrotFd-1" source="iYFu33_GuupKADUWWJhY-32" target="iYFu33_GuupKADUWWJhY-6" edge="1">
          <mxGeometry relative="1" as="geometry" />
        </mxCell>
        <mxCell id="iYFu33_GuupKADUWWJhY-99" style="edgeStyle=orthogonalEdgeStyle;rounded=0;orthogonalLoop=1;jettySize=auto;html=1;exitX=0.25;exitY=1;exitDx=0;exitDy=0;entryX=0;entryY=0.5;entryDx=0;entryDy=0;dashed=1;strokeColor=#999999;strokeWidth=2;" parent="Jd9u-9bStoHvEkMrotFd-1" source="iYFu33_GuupKADUWWJhY-65" target="iYFu33_GuupKADUWWJhY-5" edge="1">
          <mxGeometry relative="1" as="geometry">
            <Array as="points">
              <mxPoint x="1260" y="800" />
              <mxPoint x="210" y="800" />
              <mxPoint x="210" y="450" />
            </Array>
          </mxGeometry>
        </mxCell>
        <mxCell id="iYFu33_GuupKADUWWJhY-100" value="代理商-申请提现 退款流程图" style="text;html=1;align=center;verticalAlign=middle;resizable=0;points=[];autosize=1;fontSize=19;fontStyle=1" parent="Jd9u-9bStoHvEkMrotFd-1" vertex="1">
          <mxGeometry x="745" y="20" width="260" height="30" as="geometry" />
        </mxCell>
        <mxCell id="tr2-d4yrF4YFfxxrfl98-5" style="edgeStyle=orthogonalEdgeStyle;rounded=0;orthogonalLoop=1;jettySize=auto;html=1;entryX=0.5;entryY=0;entryDx=0;entryDy=0;strokeColor=#000000;strokeWidth=1;" parent="Jd9u-9bStoHvEkMrotFd-1" source="iYFu33_GuupKADUWWJhY-27" target="iYFu33_GuupKADUWWJhY-89" edge="1">
          <mxGeometry relative="1" as="geometry" />
        </mxCell>
        <mxCell id="TUf9cryZ1W5pykRoLDJF-1" value="发送退款请求" style="edgeLabel;html=1;align=center;verticalAlign=middle;resizable=0;points=[];" vertex="1" connectable="0" parent="tr2-d4yrF4YFfxxrfl98-5">
          <mxGeometry x="0.4194" y="-3" relative="1" as="geometry">
            <mxPoint as="offset" />
          </mxGeometry>
        </mxCell>
        <mxCell id="tr2-d4yrF4YFfxxrfl98-11" style="edgeStyle=orthogonalEdgeStyle;rounded=0;orthogonalLoop=1;jettySize=auto;html=1;strokeColor=#000000;strokeWidth=1;" parent="Jd9u-9bStoHvEkMrotFd-1" source="iYFu33_GuupKADUWWJhY-59" edge="1">
          <mxGeometry relative="1" as="geometry">
            <mxPoint x="1290" y="470" as="targetPoint" />
          </mxGeometry>
        </mxCell>
        <mxCell id="tr2-d4yrF4YFfxxrfl98-12" style="edgeStyle=orthogonalEdgeStyle;rounded=0;orthogonalLoop=1;jettySize=auto;html=1;strokeColor=#000000;strokeWidth=1;" parent="Jd9u-9bStoHvEkMrotFd-1" source="iYFu33_GuupKADUWWJhY-11" edge="1">
          <mxGeometry relative="1" as="geometry">
            <mxPoint x="700" y="210" as="targetPoint" />
          </mxGeometry>
        </mxCell>
      </root>
    </mxGraphModel>
  </diagram>
</mxfile>
